<svg width="1158" height="1053" viewBox="0 0 1158 1053" fill="none" xmlns="http://www.w3.org/2000/svg">
<path d="M0.5 864V90C0.5 90 99.0328 -13.3431 183 2.19487C272.902 18.8311 309.965 167.73 401 176.195C523.649 187.599 629.142 -36.8418 716.5 50C760.432 93.6725 720.594 156.819 763.5 201.5C855.011 296.798 946.655 -6.68015 1066 50C1109.83 70.815 1158 133.5 1158 133.5V913.5C1158 913.5 1076.56 844.013 1018 854C958.618 864.126 959.392 933.109 905 959C802.362 1007.86 725.825 879.043 617.5 913.5C534.089 940.032 526.67 1066.37 440.5 1051C345.645 1034.08 426.041 897.23 330 889.5C251.467 883.179 261.204 949.439 183 959C103.245 968.75 0.5 864 0.5 864Z" fill="#242B48"/>
</svg>
